<svg width="1440" height="520" viewBox="0 0 1440 520" fill="none" xmlns="http://www.w3.org/2000/svg">
  <defs>
    <linearGradient id="bg" x1="0" y1="0" x2="1440" y2="520" gradientUnits="userSpaceOnUse">
      <stop stop-color="#3B1025"/>
      <stop offset="0.6" stop-color="#6E2142"/>
      <stop offset="1" stop-color="#A43968"/>
    </linearGradient>
  </defs>
  <rect width="1440" height="520" fill="url(#bg)"/>
  <g opacity="0.15" fill="#fff">
    <circle cx="1280" cy="84" r="84"/>
    <circle cx="250" cy="420" r="130"/>
    <circle cx="1030" cy="470" r="70"/>
  </g>
  <path d="M1085 150C1085 110 1118 77 1158 77C1198 77 1231 110 1231 150C1231 221 1158 267 1158 267C1158 267 1085 221 1085 150Z" fill="#F8C1D7"/>
  <path d="M1168 129C1168 115 1157 104 1143 104C1129 104 1118 115 1118 129C1118 155 1143 172 1143 172C1143 172 1168 155 1168 129Z" fill="#fff"/>
  <text x="90" y="220" font-family="Montserrat, Arial, sans-serif" font-size="72" font-weight="800" fill="#fff">Studio Amore</text>
  <text x="92" y="286" font-family="Montserrat, Arial, sans-serif" font-size="34" font-weight="500" fill="#FDD8E8">Consulti telefonici affidabili a tariffa smart</text>
</svg>
